<svg version="1.1" id="Layer_1" xmlns="http://www.w3.org/2000/svg" xmlns:xlink="http://www.w3.org/1999/xlink" x="0px" y="0px"
	 width="100%" viewBox="0 0 146 142" enable-background="new 0 0 146 142" xml:space="preserve">
<path fill="#090706" opacity="1.000000" stroke="none" 
	d="
M84.000000,143.000000 
	C76.645752,143.000000 69.291496,143.000000 61.352905,142.636169 
	C59.984505,142.014038 59.211548,141.713593 58.414776,141.503464 
	C28.153938,133.523010 8.865301,110.977592 6.589529,79.736412 
	C5.981105,71.384132 5.191329,62.576981 9.779232,54.590832 
	C10.702409,52.983860 11.252187,50.178131 10.468776,48.752052 
	C7.661988,43.642723 4.208770,38.888504 0.999999,34.000000 
	C1.000000,30.307091 1.000000,26.614182 1.313961,22.277645 
	C4.118798,11.032113 11.223927,4.762260 21.000000,1.000000 
	C24.692909,1.000000 28.385818,1.000000 32.701298,1.318976 
	C36.014122,2.884543 39.699753,3.410432 41.217190,5.506200 
	C46.887093,13.337031 53.554192,12.172914 61.620296,10.145247 
	C74.292244,6.959756 86.942253,9.103280 99.335419,13.815192 
	C103.331696,6.752963 110.208557,3.937535 117.000000,1.000000 
	C119.041664,1.000000 121.083336,1.000000 123.689201,1.361503 
	C126.924881,2.523983 129.755173,2.994114 132.238831,4.186350 
	C140.559723,8.180635 144.704620,15.436628 147.000000,24.000000 
	C147.000000,27.030594 147.000000,30.061188 146.690430,33.736523 
	C143.938156,38.838612 142.233490,43.999828 138.843857,47.554127 
	C135.495773,51.064869 136.088715,53.506191 138.512421,56.349808 
	C141.027328,59.300442 142.077728,62.211620 140.313675,65.907463 
	C139.931152,66.708900 140.196014,67.865791 140.297440,68.845009 
	C143.820374,102.853996 122.153969,133.458038 88.916153,141.438507 
	C87.248596,141.838882 85.637421,142.474106 84.000000,143.000000 
M94.587250,73.230255 
	C94.600090,73.576569 94.612923,73.922882 94.625763,74.269196 
	C94.761612,73.854530 94.897461,73.439873 95.284332,72.899338 
	C95.181641,72.922569 95.078957,72.945801 94.587250,73.230255 
M59.752026,70.071831 
	C64.813599,69.024590 66.470451,65.071732 67.188072,60.735325 
	C67.790863,57.092846 68.909218,52.976738 63.655849,50.220428 
	C61.869804,49.875240 60.087124,49.252796 58.297157,49.231087 
	C48.642410,49.114002 38.985863,49.145943 28.542698,49.055218 
	C27.680304,49.743038 26.817911,50.430855 25.171120,51.010674 
	C23.841919,52.003471 21.784414,52.728302 21.304188,54.033474 
	C18.609743,61.356541 21.502480,69.078239 28.570894,73.685028 
	C29.588085,73.685028 30.605274,73.685028 31.622465,73.685028 
	C31.584414,73.378944 31.546362,73.072868 31.508310,72.766785 
	C30.448582,72.508217 29.388853,72.249641 27.970741,71.355789 
	C23.067438,66.000015 22.052212,56.467907 26.602320,51.978287 
	C27.406752,51.643803 28.211185,51.309319 29.946121,50.856781 
	C33.410076,50.877823 36.877460,50.807922 40.337280,50.938541 
	C47.901680,51.224110 55.462231,51.611504 63.615295,52.443020 
	C67.086113,59.617844 63.737499,64.995270 58.310741,70.066978 
	C57.290939,70.638710 56.271141,71.210434 55.251339,71.782166 
	C55.543476,72.178307 55.835609,72.574448 56.127747,72.970589 
	C57.084160,71.984558 58.040577,70.998528 59.752026,70.071831 
M88.424454,70.315147 
	C88.791824,70.895309 89.159195,71.475471 89.526566,72.055634 
	C89.798447,71.827530 90.070335,71.599419 90.342216,71.371315 
	C89.614296,70.580887 88.886383,69.790466 87.763428,68.435707 
	C86.444214,65.836098 85.124992,63.236485 83.809776,60.053730 
	C83.630966,59.718853 83.452164,59.383976 83.147903,58.244514 
	C83.526382,55.848301 83.904861,53.452087 84.320290,50.821930 
	C80.018806,51.860195 80.318245,55.169548 80.406334,58.204815 
	C80.582809,64.285408 83.308434,68.422943 88.424454,70.315147 
M116.009758,47.517742 
	C116.014275,47.167820 116.018799,46.817894 116.783340,46.373348 
	C117.268311,46.514645 117.753281,46.655941 118.556419,46.914070 
	C118.556419,46.914070 118.894333,46.951153 118.894333,46.951153 
	C118.894333,46.951153 119.231247,46.905762 120.050858,46.792522 
	C121.656830,46.888081 123.262810,46.983643 125.681206,47.127541 
	C113.827972,27.866632 97.386101,17.218985 75.455009,16.613680 
	C51.386185,15.949373 33.507706,27.089584 21.694477,46.579216 
	C33.659611,46.579216 45.892929,46.579216 58.543289,46.805500 
	C58.543289,46.805500 59.014515,46.887257 59.014515,46.887257 
	C59.014515,46.887257 59.491310,46.849327 60.264198,46.703239 
	C65.591431,47.232277 70.912193,48.074577 76.248077,48.184803 
	C80.070328,48.263756 83.912827,47.362507 88.097221,46.945019 
	C88.337761,46.946079 88.564590,46.890846 89.610268,46.425034 
	C91.412323,46.352951 93.214371,46.280872 95.210251,46.473103 
	C95.210251,46.473103 95.654755,46.531540 95.654755,46.531540 
	C95.654755,46.531540 95.985863,46.190311 96.837769,46.043335 
	C101.234352,46.087498 105.630936,46.131664 110.404594,46.613064 
	C111.253494,47.072010 112.102394,47.530956 112.477036,48.666771 
	C103.773331,49.033699 95.069626,49.400631 86.365913,49.767559 
	C86.396042,50.129532 86.426170,50.491505 86.456299,50.853477 
	C97.668709,50.853477 108.881111,50.853477 120.675865,51.304363 
	C121.720085,52.064991 123.203514,52.596451 123.738930,53.622570 
	C127.959503,61.711285 122.744705,71.652321 112.934639,73.131058 
	C112.446724,73.424805 111.958817,73.718552 111.470901,74.012306 
	C111.942284,74.352242 112.413673,74.692169 113.690964,75.068031 
	C125.820137,72.563995 127.661240,67.604530 127.095650,56.902924 
	C126.844154,52.144444 124.859215,49.866875 119.448219,49.872543 
	C118.293289,49.262486 117.138351,48.652428 116.009758,47.517742 
M62.253578,134.538559 
	C107.255569,142.523895 141.120255,101.825226 131.232132,61.862503 
	C129.837784,72.074165 123.686333,76.900940 115.118332,77.858704 
	C107.348366,78.727257 99.404747,78.042366 91.829056,78.042366 
	C88.200432,83.044708 84.200836,88.486191 80.295815,93.994705 
	C79.366447,95.305702 78.170235,96.812584 78.099022,98.278069 
	C77.836563,103.679298 77.994774,109.100983 77.994774,114.641464 
	C87.606354,112.337906 93.000816,106.203644 93.974884,96.721939 
	C94.262840,93.918907 95.066788,91.188278 98.192871,92.108292 
	C99.745415,92.565208 101.595001,95.688744 101.494881,97.505898 
	C100.664383,112.578903 86.885193,124.152290 71.818787,122.832649 
	C58.194622,121.639328 46.722927,109.755592 46.909477,96.781029 
	C46.932007,95.213737 47.893723,93.374565 49.004990,92.228447 
	C49.562206,91.653763 51.973347,91.885284 52.592117,92.589897 
	C53.562885,93.695343 53.945255,95.474617 54.195690,97.029900 
	C55.754311,106.709335 61.777740,113.344109 70.326912,114.269081 
	C70.326912,111.919930 70.078094,109.575340 70.373749,107.301559 
	C71.248177,100.576584 69.122246,95.085190 64.629532,90.059113 
	C61.208576,86.232040 58.449474,81.813354 55.047050,77.183121 
	C54.997673,77.195915 53.886452,77.727242 52.772495,77.733017 
	C45.517963,77.770683 38.143566,78.496414 31.039871,77.440178 
	C23.199232,76.274368 17.941984,71.127686 16.762615,62.089565 
	C4.853040,89.859406 28.463921,127.315674 62.253578,134.538559 
M121.976326,29.523529 
	C125.556259,33.995686 129.136200,38.467838 132.862122,43.122375 
	C139.121887,37.121910 140.702179,30.006399 138.255844,22.083923 
	C135.927856,14.544621 130.535400,10.067754 122.696419,9.245805 
	C115.939102,8.537274 110.544952,11.326944 106.642357,16.719749 
	C111.830513,21.011389 116.663185,25.008968 121.976326,29.523529 
M40.628677,17.485415 
	C40.221180,16.198851 40.185966,14.554613 39.347603,13.682013 
	C32.307579,6.354514 20.538755,6.778608 13.620035,14.464775 
	C6.351849,22.539171 7.140961,35.581875 15.485559,42.060490 
	C21.726650,32.019356 29.759092,23.770937 40.628677,17.485415 
M100.509346,53.794983 
	C96.084358,53.794983 91.659370,53.794983 85.713226,53.794983 
	C87.283157,59.032825 88.434135,62.872921 89.585121,66.713013 
	C90.103302,66.616745 90.621483,66.520485 91.139664,66.424217 
	C91.146004,62.031265 91.448715,57.327690 96.767624,56.812279 
	C99.150612,56.581367 102.742027,58.228786 104.100204,60.190384 
	C107.046509,64.445709 103.913086,67.754303 99.358444,71.084023 
	C103.471428,71.084023 106.238907,71.209259 108.991684,71.061203 
	C118.286308,70.561302 120.888351,67.532478 120.828278,58.339420 
	C120.806442,54.997829 119.578857,53.967937 116.460999,54.007160 
	C111.477348,54.069847 106.490463,53.875523 100.509346,53.794983 
M56.580048,61.842411 
	C56.580048,63.229153 56.580048,64.615898 56.580048,66.524178 
	C61.575928,63.515236 61.378963,59.247334 60.720016,54.159214 
	C50.378513,54.159214 40.107891,54.101871 29.840689,54.262867 
	C28.974426,54.276451 27.573898,55.628670 27.363794,56.569424 
	C25.381538,65.445114 29.095938,70.344635 38.272278,70.995499 
	C41.432201,71.219627 44.621387,71.031120 46.556583,71.031120 
	C45.303047,67.735847 43.178738,64.681854 43.381229,61.790848 
	C43.515385,59.875561 46.718990,57.306984 49.022850,56.618725 
	C52.345192,55.626205 55.048107,57.705551 56.580048,61.842411 
M77.017288,61.084438 
	C76.874329,59.484459 76.731377,57.884480 76.561951,55.988155 
	C74.596779,56.105175 73.018921,56.199131 71.185173,56.308327 
	C71.723167,64.453484 67.701645,70.001488 61.217865,74.521408 
	C70.120209,74.521408 78.089752,74.521408 84.891373,74.521408 
	C82.403358,70.463058 79.777023,66.179085 77.017288,61.084438 
M36.596016,75.220619 
	C35.833221,74.544289 35.070427,73.867966 34.307629,73.191643 
	C33.957027,73.674332 33.606426,74.157021 33.255821,74.639709 
	C34.189480,74.998795 35.123135,75.357872 36.596016,75.220619 
M49.390316,75.831215 
	C49.714382,75.267715 50.038448,74.704208 50.362511,74.140701 
	C49.794006,73.936882 49.225502,73.733055 48.656998,73.529228 
	C48.699192,74.240425 48.741386,74.951630 49.390316,75.831215 
M99.106529,74.284721 
	C98.576447,74.473801 98.046371,74.662880 97.516289,74.851967 
	C97.639771,75.125755 97.763252,75.399544 97.886726,75.673332 
	C98.432449,75.353722 98.978165,75.034103 99.106529,74.284721 
M52.822350,72.402267 
	C52.806068,72.943535 52.762997,73.487175 52.810379,74.022812 
	C52.815773,74.083778 53.328815,74.099838 53.606468,74.136726 
	C53.526505,73.572487 53.446545,73.008240 52.822350,72.402267 
M54.411411,68.196198 
	C54.791733,68.200195 55.172237,68.207825 55.551357,68.188347 
	C55.561378,68.187828 55.566761,67.755287 55.556667,67.754517 
	C55.178455,67.725548 54.798168,67.723724 54.411411,68.196198 
M93.349869,68.523331 
	C93.151260,68.471107 92.952644,68.418877 92.754036,68.366653 
	C92.881676,68.494156 93.009308,68.621658 93.349869,68.523331 
z"/>
<path fill="#FCFCFC" opacity="1.000000" stroke="none" 
	d="
M84.468658,143.000000 
	C85.637421,142.474106 87.248596,141.838882 88.916153,141.438507 
	C122.153969,133.458038 143.820374,102.853996 140.297440,68.845009 
	C140.196014,67.865791 139.931152,66.708900 140.313675,65.907463 
	C142.077728,62.211620 141.027328,59.300442 138.512421,56.349808 
	C136.088715,53.506191 135.495773,51.064869 138.843857,47.554127 
	C142.233490,43.999828 143.938156,38.838612 146.690430,34.190632 
	C147.000000,70.240685 147.000000,106.481377 147.000000,143.000000 
	C126.313271,143.000000 105.625290,143.000000 84.468658,143.000000 
z"/>
<path fill="#FCFCFC" opacity="1.000000" stroke="none" 
	d="
M0.999999,34.468658 
	C4.208770,38.888504 7.661988,43.642723 10.468776,48.752052 
	C11.252187,50.178131 10.702409,52.983860 9.779232,54.590832 
	C5.191329,62.576981 5.981105,71.384132 6.589529,79.736412 
	C8.865301,110.977592 28.153938,133.523010 58.414776,141.503464 
	C59.211548,141.713593 59.984505,142.014038 60.884285,142.636169 
	C41.051899,143.000000 21.103800,143.000000 1.000000,143.000000 
	C1.000000,106.979248 1.000000,70.958282 0.999999,34.468658 
z"/>
<path fill="#FAFAFA" opacity="1.000000" stroke="none" 
	d="
M116.531342,1.000000 
	C110.208557,3.937535 103.331696,6.752963 99.335419,13.815192 
	C86.942253,9.103280 74.292244,6.959756 61.620296,10.145247 
	C53.554192,12.172914 46.887093,13.337031 41.217190,5.506200 
	C39.699753,3.410432 36.014122,2.884543 33.161934,1.318976 
	C60.687561,1.000000 88.375122,1.000000 116.531342,1.000000 
z"/>
<path fill="#F8F8F8" opacity="1.000000" stroke="none" 
	d="
M147.000000,23.531263 
	C144.704620,15.436628 140.559723,8.180635 132.238831,4.186350 
	C129.755173,2.994114 126.924881,2.523983 124.126701,1.361503 
	C131.592957,1.000000 139.185913,1.000000 147.000000,1.000000 
	C147.000000,8.352704 147.000000,15.707616 147.000000,23.531263 
z"/>
<path fill="#F7F7F7" opacity="1.000000" stroke="none" 
	d="
M20.530956,1.000000 
	C11.223927,4.762260 4.118798,11.032113 1.313961,21.817009 
	C1.000000,15.075719 1.000000,8.151438 1.000000,1.000000 
	C7.352178,1.000000 13.707046,1.000000 20.530956,1.000000 
z"/>
<path fill="#E9B259" opacity="1.000000" stroke="none" 
	d="
M61.834511,134.423889 
	C28.463921,127.315674 4.853040,89.859406 16.762615,62.089565 
	C17.941984,71.127686 23.199232,76.274368 31.039871,77.440178 
	C38.143566,78.496414 45.517963,77.770683 52.772495,77.733017 
	C53.886452,77.727242 54.997673,77.195915 55.047050,77.183121 
	C58.449474,81.813354 61.208576,86.232040 64.629532,90.059113 
	C69.122246,95.085190 71.248177,100.576584 70.373749,107.301559 
	C70.078094,109.575340 70.326912,111.919930 70.326912,114.269081 
	C61.777740,113.344109 55.754311,106.709335 54.195690,97.029900 
	C53.945255,95.474617 53.562885,93.695343 52.592117,92.589897 
	C51.973347,91.885284 49.562206,91.653763 49.004990,92.228447 
	C47.893723,93.374565 46.932007,95.213737 46.909477,96.781029 
	C46.722927,109.755592 58.194622,121.639328 71.818787,122.832649 
	C86.885193,124.152290 100.664383,112.578903 101.494881,97.505898 
	C101.595001,95.688744 99.745415,92.565208 98.192871,92.108292 
	C95.066788,91.188278 94.262840,93.918907 93.974884,96.721939 
	C93.000816,106.203644 87.606354,112.337906 77.994774,114.641464 
	C77.994774,109.100983 77.836563,103.679298 78.099022,98.278069 
	C78.170235,96.812584 79.366447,95.305702 80.295815,93.994705 
	C84.200836,88.486191 88.200432,83.044708 91.829056,78.042366 
	C99.404747,78.042366 107.348366,78.727257 115.118332,77.858704 
	C123.686333,76.900940 129.837784,72.074165 131.232132,61.862503 
	C141.120255,101.825226 107.255569,142.523895 61.834511,134.423889 
z"/>
<path fill="#EAB359" opacity="1.000000" stroke="none" 
	d="
M110.027519,46.175831 
	C105.630936,46.131664 101.234352,46.087498 96.168205,46.055794 
	C95.337898,46.115101 95.177162,46.161949 95.016426,46.208794 
	C93.214371,46.280872 91.412323,46.352951 89.024307,46.502090 
	C88.148361,46.557030 87.917679,46.663509 87.746292,46.898586 
	C83.912827,47.362507 80.070328,48.263756 76.248077,48.184803 
	C70.912193,48.074577 65.591431,47.232277 59.682259,46.610401 
	C58.775627,46.538113 58.450935,46.558666 58.126244,46.579216 
	C45.892929,46.579216 33.659611,46.579216 21.694477,46.579216 
	C33.507706,27.089584 51.386185,15.949373 75.455009,16.613680 
	C97.386101,17.218985 113.827972,27.866632 125.681206,47.127541 
	C123.262810,46.983643 121.656830,46.888081 119.495560,46.723572 
	C118.670692,46.527519 118.436691,46.575058 118.238251,46.797234 
	C117.753281,46.655941 117.268311,46.514645 115.992081,46.286869 
	C113.476379,46.192204 111.751953,46.184017 110.027519,46.175831 
z"/>
<path fill="#E7B158" opacity="1.000000" stroke="none" 
	d="
M121.736092,29.265039 
	C116.663185,25.008968 111.830513,21.011389 106.642357,16.719749 
	C110.544952,11.326944 115.939102,8.537274 122.696419,9.245805 
	C130.535400,10.067754 135.927856,14.544621 138.255844,22.083923 
	C140.702179,30.006399 139.121887,37.121910 132.862122,43.122375 
	C129.136200,38.467838 125.556259,33.995686 121.736092,29.265039 
z"/>
<path fill="#E8B258" opacity="1.000000" stroke="none" 
	d="
M40.339447,17.667021 
	C29.759092,23.770937 21.726650,32.019356 15.485559,42.060490 
	C7.140961,35.581875 6.351849,22.539171 13.620035,14.464775 
	C20.538755,6.778608 32.307579,6.354514 39.347603,13.682013 
	C40.185966,14.554613 40.221180,16.198851 40.339447,17.667021 
z"/>
<path fill="#E5B058" opacity="1.000000" stroke="none" 
	d="
M101.007149,53.792419 
	C106.490463,53.875523 111.477348,54.069847 116.460999,54.007160 
	C119.578857,53.967937 120.806442,54.997829 120.828278,58.339420 
	C120.888351,67.532478 118.286308,70.561302 108.991684,71.061203 
	C106.238907,71.209259 103.471428,71.084023 99.358444,71.084023 
	C103.913086,67.754303 107.046509,64.445709 104.100204,60.190384 
	C102.742027,58.228786 99.150612,56.581367 96.767624,56.812279 
	C91.448715,57.327690 91.146004,62.031265 91.139664,66.424217 
	C90.621483,66.520485 90.103302,66.616745 89.585121,66.713013 
	C88.434135,62.872921 87.283157,59.032825 85.713226,53.794983 
	C91.659370,53.794983 96.084358,53.794983 101.007149,53.792419 
z"/>
<path fill="#E5B058" opacity="1.000000" stroke="none" 
	d="
M56.441078,61.488686 
	C55.048107,57.705551 52.345192,55.626205 49.022850,56.618725 
	C46.718990,57.306984 43.515385,59.875561 43.381229,61.790848 
	C43.178738,64.681854 45.303047,67.735847 46.556583,71.031120 
	C44.621387,71.031120 41.432201,71.219627 38.272278,70.995499 
	C29.095938,70.344635 25.381538,65.445114 27.363794,56.569424 
	C27.573898,55.628670 28.974426,54.276451 29.840689,54.262867 
	C40.107891,54.101871 50.378513,54.159214 60.720016,54.159214 
	C61.378963,59.247334 61.575928,63.515236 56.580048,66.524178 
	C56.580048,64.615898 56.580048,63.229153 56.441078,61.488686 
z"/>
<path fill="#E0AC57" opacity="1.000000" stroke="none" 
	d="
M77.083984,61.489769 
	C79.777023,66.179085 82.403358,70.463058 84.891373,74.521408 
	C78.089752,74.521408 70.120209,74.521408 61.217865,74.521408 
	C67.701645,70.001488 71.723167,64.453484 71.185173,56.308327 
	C73.018921,56.199131 74.596779,56.105175 76.561951,55.988155 
	C76.731377,57.884480 76.874329,59.484459 77.083984,61.489769 
z"/>
<path fill="#7B6BAE" opacity="1.000000" stroke="none" 
	d="
M113.605270,73.189430 
	C122.744705,71.652321 127.959503,61.711285 123.738930,53.622570 
	C123.203514,52.596451 121.720085,52.064991 120.396812,50.903702 
	C120.117760,50.503040 120.076836,50.154053 120.076836,50.154053 
	C124.859215,49.866875 126.844154,52.144444 127.095650,56.902924 
	C127.661240,67.604530 125.820137,72.563995 113.349930,74.723526 
	C113.207687,73.982491 113.406471,73.585960 113.605270,73.189430 
z"/>
<path fill="#5F5184" opacity="1.000000" stroke="none" 
	d="
M63.024353,51.957298 
	C55.462231,51.611504 47.901680,51.224110 40.337280,50.938541 
	C36.877460,50.807922 33.410076,50.877823 29.505560,50.602829 
	C29.153311,49.941410 29.241621,49.533943 29.329933,49.126476 
	C38.985863,49.145943 48.642410,49.114002 58.297157,49.231087 
	C60.087124,49.252796 61.869804,49.875240 63.691925,50.630508 
	C63.493454,51.346157 63.258904,51.651730 63.024353,51.957298 
z"/>
<path fill="#524673" opacity="1.000000" stroke="none" 
	d="
M119.762527,50.013298 
	C120.076836,50.154053 120.117760,50.503040 120.105637,50.678261 
	C108.881111,50.853477 97.668709,50.853477 86.456299,50.853477 
	C86.426170,50.491505 86.396042,50.129532 86.365913,49.767559 
	C95.069626,49.400631 103.773331,49.033699 113.093140,48.282455 
	C114.467300,47.946213 115.225357,47.994293 115.983421,48.042370 
	C117.138351,48.652428 118.293289,49.262486 119.762527,50.013298 
z"/>
<path fill="#7D6DB2" opacity="1.000000" stroke="none" 
	d="
M25.905317,51.963242 
	C22.052212,56.467907 23.067438,66.000015 28.115147,71.998001 
	C28.216036,72.853432 28.172516,73.066658 28.128994,73.279884 
	C21.502480,69.078239 18.609743,61.356541 21.304188,54.033474 
	C21.784414,52.728302 23.841919,52.003471 25.560875,51.276413 
	C25.950630,51.542149 25.905317,51.963242 25.905317,51.963242 
z"/>
<path fill="#7C6DB0" opacity="1.000000" stroke="none" 
	d="
M83.805779,60.636875 
	C85.124992,63.236485 86.444214,65.836098 87.912491,68.961441 
	C88.061546,69.487167 87.944305,69.969849 87.944305,69.969849 
	C83.308434,68.422943 80.582809,64.285408 80.406334,58.204815 
	C80.318245,55.169548 80.018806,51.860195 84.320290,50.821930 
	C83.904861,53.452087 83.526382,55.848301 83.170387,58.948891 
	C83.397171,59.981140 83.601479,60.309006 83.805779,60.636875 
z"/>
<path fill="#7F6FB6" opacity="1.000000" stroke="none" 
	d="
M63.319824,52.200161 
	C63.258904,51.651730 63.493454,51.346157 63.985641,50.895290 
	C68.909218,52.976738 67.790863,57.092846 67.188072,60.735325 
	C66.470451,65.071732 64.813599,69.024590 59.376205,70.035599 
	C59.000389,69.999367 58.986965,70.003197 58.986965,70.003197 
	C63.737499,64.995270 67.086113,59.617844 63.319824,52.200161 
z"/>
<path fill="#0C0A09" opacity="1.000000" stroke="none" 
	d="
M36.326405,75.468788 
	C35.123135,75.357872 34.189480,74.998795 33.255821,74.639709 
	C33.606426,74.157021 33.957027,73.674332 34.307632,73.191643 
	C35.070427,73.867966 35.833221,74.544289 36.326405,75.468788 
z"/>
<path fill="#110C09" opacity="1.000000" stroke="none" 
	d="
M115.996590,47.780056 
	C115.225357,47.994293 114.467300,47.946213 113.330261,47.944019 
	C112.102394,47.530956 111.253494,47.072010 110.216057,46.394447 
	C111.751953,46.184017 113.476379,46.192204 115.612061,46.334183 
	C116.018799,46.817894 116.014275,47.167820 115.996590,47.780056 
z"/>
<path fill="#0C0A09" opacity="1.000000" stroke="none" 
	d="
M26.253819,51.970764 
	C25.905317,51.963242 25.950630,51.542149 25.953074,51.330410 
	C26.817911,50.430855 27.680304,49.743038 28.936314,49.090847 
	C29.241621,49.533943 29.153311,49.941410 29.040310,50.661858 
	C28.211185,51.309319 27.406752,51.643803 26.253819,51.970764 
z"/>
<path fill="#0C0A09" opacity="1.000000" stroke="none" 
	d="
M49.086945,75.747025 
	C48.741386,74.951630 48.699192,74.240425 48.656998,73.529228 
	C49.225502,73.733055 49.794006,73.936882 50.362511,74.140701 
	C50.038448,74.704208 49.714382,75.267715 49.086945,75.747025 
z"/>
<path fill="#0C0A09" opacity="1.000000" stroke="none" 
	d="
M58.998688,70.005936 
	C58.040577,70.998528 57.084160,71.984558 56.127747,72.970589 
	C55.835609,72.574448 55.543476,72.178307 55.251339,71.782166 
	C56.271141,71.210434 57.290939,70.638710 58.648853,70.035088 
	C58.986965,70.003197 59.000389,69.999367 58.998688,70.005936 
z"/>
<path fill="#0C0A09" opacity="1.000000" stroke="none" 
	d="
M28.349945,73.482452 
	C28.172516,73.066658 28.216036,72.853432 28.294340,72.315643 
	C29.388853,72.249641 30.448582,72.508217 31.508310,72.766785 
	C31.546362,73.072868 31.584414,73.378944 31.622465,73.685028 
	C30.605274,73.685028 29.588085,73.685028 28.349945,73.482452 
z"/>
<path fill="#0C0909" opacity="1.000000" stroke="none" 
	d="
M99.315201,74.499603 
	C98.978165,75.034103 98.432449,75.353722 97.886726,75.673332 
	C97.763252,75.399544 97.639771,75.125755 97.516289,74.851967 
	C98.046371,74.662880 98.576447,74.473801 99.315201,74.499603 
z"/>
<path fill="#0C0A09" opacity="1.000000" stroke="none" 
	d="
M53.094467,72.423134 
	C53.446545,73.008240 53.526505,73.572487 53.606468,74.136726 
	C53.328815,74.099838 52.815773,74.083778 52.810379,74.022812 
	C52.762997,73.487175 52.806068,72.943535 53.094467,72.423134 
z"/>
<path fill="#0C0909" opacity="1.000000" stroke="none" 
	d="
M88.184380,70.142502 
	C87.944305,69.969849 88.061546,69.487167 88.110001,69.243607 
	C88.886383,69.790466 89.614296,70.580887 90.342216,71.371315 
	C90.070335,71.599419 89.798447,71.827530 89.526566,72.055634 
	C89.159195,71.475471 88.791824,70.895309 88.184380,70.142502 
z"/>
<path fill="#0C0909" opacity="1.000000" stroke="none" 
	d="
M113.269951,73.160248 
	C113.406471,73.585960 113.207687,73.982491 112.946976,74.705559 
	C112.413673,74.692169 111.942284,74.352242 111.470901,74.012306 
	C111.958817,73.718552 112.446724,73.424805 113.269951,73.160248 
z"/>
<path fill="#0C0A09" opacity="1.000000" stroke="none" 
	d="
M54.414787,67.957214 
	C54.798168,67.723724 55.178455,67.725548 55.556667,67.754517 
	C55.566761,67.755287 55.561378,68.187828 55.551357,68.188347 
	C55.172237,68.207825 54.791733,68.200195 54.414787,67.957214 
z"/>
<path fill="#0C0909" opacity="1.000000" stroke="none" 
	d="
M93.243408,68.636246 
	C93.009308,68.621658 92.881676,68.494156 92.754036,68.366653 
	C92.952644,68.418877 93.151260,68.471107 93.243408,68.636246 
z"/>
<path fill="#0C0909" opacity="1.000000" stroke="none" 
	d="
M95.033310,73.025208 
	C94.897461,73.439873 94.761612,73.854530 94.625763,74.269196 
	C94.612923,73.922882 94.600090,73.576569 94.794617,73.115089 
	C95.001984,72.999924 95.033310,73.025208 95.033310,73.025208 
z"/>
<path fill="#0C0909" opacity="1.000000" stroke="none" 
	d="
M94.989120,72.984474 
	C95.078957,72.945801 95.181641,72.922569 95.158821,72.962273 
	C95.033310,73.025208 95.001984,72.999924 94.989120,72.984474 
z"/>
<path fill="#110C09" opacity="1.000000" stroke="none" 
	d="
M87.921753,46.921803 
	C87.917679,46.663509 88.148361,46.557030 88.608017,46.679230 
	C88.564590,46.890846 88.337761,46.946079 87.921753,46.921803 
z"/>
<path fill="#0C0909" opacity="1.000000" stroke="none" 
	d="
M83.807777,60.345303 
	C83.601479,60.309006 83.397171,59.981140 83.233116,59.351185 
	C83.452164,59.383976 83.630966,59.718853 83.807777,60.345303 
z"/>
<path fill="#110C09" opacity="1.000000" stroke="none" 
	d="
M95.113342,46.340950 
	C95.177162,46.161949 95.337898,46.115101 95.742249,46.129280 
	C95.985863,46.190311 95.654755,46.531540 95.654755,46.531540 
	C95.654755,46.531540 95.210251,46.473103 95.113342,46.340950 
z"/>
<path fill="#110C09" opacity="1.000000" stroke="none" 
	d="
M118.397339,46.855652 
	C118.436691,46.575058 118.670692,46.527519 119.085754,46.780190 
	C119.231247,46.905762 118.894333,46.951153 118.894333,46.951153 
	C118.894333,46.951153 118.556419,46.914070 118.397339,46.855652 
z"/>
<path fill="#100A08" opacity="1.000000" stroke="none" 
	d="
M58.334766,46.692360 
	C58.450935,46.558666 58.775627,46.538113 59.295815,46.683445 
	C59.491310,46.849327 59.014515,46.887257 59.014515,46.887257 
	C59.014515,46.887257 58.543289,46.805500 58.334766,46.692360 
z"/>
</svg>